Coordinates
version=1
nRows=19
nColumns=36
inDegrees=yes

Units are S.I. units (second, meters, Newtons, ...)
If the header above contains a line with 'inDegrees', this indicates whether rotational values are in degrees (yes) or radians (no).

endheader
time	pelvis_tilt	pelvis_list	pelvis_rotation	pelvis_tx	pelvis_ty	pelvis_tz	hip_flexion_r	hip_adduction_r	hip_rotation_r	knee_angle_r	knee_angle_r_beta	ankle_angle_r	subtalar_angle_r	mtp_angle_r	hip_flexion_l	hip_adduction_l	hip_rotation_l	knee_angle_l	knee_angle_l_beta	ankle_angle_l	subtalar_angle_l	mtp_angle_l	lumbar_extension	lumbar_bending	lumbar_rotation	arm_flex_r	arm_add_r	arm_rot_r	elbow_flex_r	pro_sup_r	arm_flex_l	arm_add_l	arm_rot_l	elbow_flex_l	pro_sup_l
      4.33333330	     -4.16699495	      1.45558189	     -4.97448698	      0.40596252	      0.99741382	     -0.06487006	      3.24239046	     -4.28875112	     12.94917403	      6.04948064	      0.10558336	      6.15345369	    -17.19707088	     -7.49999987	      4.92977841	     -1.10613680	      9.36729163	      7.98897726	      0.13943396	      2.67786127	    -20.82012604	     -7.49999987	     -6.76136717	     -1.40237470	      0.03843258	      5.34689142	     -4.91981730	     20.70524418	     29.06760186	     87.49620520	      8.19612479	     -5.32692334	      6.63848723	     25.95488475	     91.75424074
      4.33750000	     -4.37473198	      1.49385800	     -4.96976406	      0.40587012	      0.99705038	     -0.06488137	      3.46403268	     -4.31537928	     12.94852729	      6.01200155	      0.10492922	      6.13893679	    -17.08328596	     -7.49999987	      5.15214146	     -1.08134372	      9.34463591	      7.99094102	      0.13946823	      2.72731314	    -20.65884209	     -7.49999987	     -6.42798581	     -1.43256021	      0.11005797	      5.23716061	     -4.75059214	     19.39024626	     28.81872126	     93.59833135	      8.17304516	     -5.18882480	      5.40481507	     25.86388997	     98.20917795
      4.34166670	     -4.27766161	      1.51098276	     -4.96814447	      0.40586570	      0.99809604	     -0.06525456	      3.33603133	     -4.37126769	     12.88225918	      5.93683792	      0.10361737	      6.12249119	    -16.90916360	     -7.49999987	      5.00083279	     -1.05787664	      9.36603209	      7.88272489	      0.13757950	      2.60773240	    -20.66116111	     -7.49999987	     -6.57940047	     -1.41673608	      0.05702487	      5.30190011	     -4.80011805	     19.70018561	     28.87703103	     92.57978901	      8.21050938	     -5.16878683	      5.56260648	     25.87821991	     97.13333716
      4.34583330	     -4.25649732	      1.50090643	     -4.95763580	      0.40552029	      0.99593119	     -0.06454738	      3.30292580	     -4.36299583	     12.89158252	      5.88386849	      0.10269288	      6.07330161	    -16.93436047	     -7.49999987	      4.97249203	     -1.07357999	      9.35266253	      7.87087169	      0.13737263	      2.73896197	    -20.47152373	     -7.49999987	     -6.61503399	     -1.39939232	      0.03328349	      5.28929455	     -4.73429060	     19.29445559	     28.90480852	     93.89727499	      8.23247647	     -5.12320092	      5.23870841	     25.86248575	     98.52270149
      4.35000000	     -4.24284952	      1.50863282	     -4.93281357	      0.40577100	      0.99788933	     -0.06426205	      3.24528517	     -4.37263754	     12.85550093	      5.80437690	      0.10130549	      6.06622988	    -16.80585350	     -7.49999987	      4.95116510	     -1.07229540	      9.32407107	      7.85762687	      0.13714146	      2.69392272	    -20.45342847	     -7.49999987	     -6.59101427	     -1.40619300	      0.00308031	      5.31477812	     -4.63584199	     19.46178144	     28.67980909	     91.05558136	      8.29642259	     -5.04642993	      5.32479293	     25.62438891	     95.60684102
      4.35416670	     -4.25936108	      1.50776643	     -4.90936404	      0.40490850	      0.99741826	     -0.06405143	      3.23700607	     -4.34192976	     12.84841600	      5.73718879	      0.10013283	      6.06878558	    -16.78414353	     -7.49999987	      4.99284898	     -1.08284939	      9.44272460	      7.86965438	      0.13735138	      2.53328607	    -20.73480938	     -7.49999987	     -6.60325064	     -1.42590427	     -0.02828013	      5.31168900	     -4.69799929	     19.57243551	     28.87988836	     93.77542924	      8.32130700	     -5.14399497	      5.51271685	     25.69595345	     98.46776688
      4.35833330	     -4.28574013	      1.52710279	     -4.88310017	      0.40441776	      0.99650295	     -0.06437300	      3.27034377	     -4.34668321	     12.92893468	      5.69454056	      0.09938848	      5.97988107	    -16.96424548	     -7.49999987	      5.08152291	     -1.05680672	      9.38795395	      7.93759580	      0.13853718	      2.56590333	    -20.73690779	     -7.49999987	     -6.62162537	     -1.47204248	     -0.04492140	      5.33210187	     -4.65549477	     19.64243431	     28.85968956	     93.84910094	      8.38247866	     -5.15333055	      5.58479486	     25.67803357	     98.58734232
      4.36250000	     -4.35563820	      1.55333103	     -4.88969694	      0.40447670	      0.99669267	     -0.06344342	      3.35628398	     -4.33423340	     12.92270398	      5.71655947	      0.09977278	      6.05235708	    -16.91465728	     -7.49999987	      5.16774355	     -1.05331583	      9.33912246	      7.95871639	      0.13890581	      2.57765640	    -20.74276500	     -7.49999987	     -6.59108169	     -1.54981477	     -0.05252740	      5.31232478	     -4.57669571	     19.62088997	     28.86430331	     93.26359033	      8.39204933	     -5.14776473	      5.53774682	     25.67996951	     98.07466195
      4.36666670	     -4.40303351	      1.54314315	     -4.87670070	      0.40432086	      0.99588557	     -0.06414477	      3.45089517	     -4.31502475	     12.83818448	      5.78781109	      0.10101636	      6.10151196	    -16.90307198	     -7.49999987	      5.26820963	     -1.05741837	      9.30103859	      8.03312497	      0.14020448	      2.70522978	    -20.74763926	     -7.49999987	     -6.57737508	     -1.54765490	     -0.06858795	      5.35096267	     -4.58249598	     19.67484859	     28.85744684	     93.74917409	      8.45361858	     -5.15048020	      5.61320429	     25.67714732	     98.70856253
      4.37083330	     -4.34725447	      1.54724852	     -4.85245296	      0.40472646	      0.99540023	     -0.06382450	      3.42426499	     -4.30984076	     12.82572573	      5.87438287	      0.10252732	      6.05409774	    -16.99988638	     -7.49999987	      5.22340736	     -1.03820944	      9.37959675	      8.05762268	      0.14063205	      2.60433747	    -20.94136328	     -7.49999987	     -6.69950637	     -1.56658134	     -0.13343605	      5.41320886	     -4.60795239	     20.30585160	     28.88631707	     91.21122020	      8.48530679	     -5.16839298	      6.14845206	     25.69419014	     95.88990799
      4.37500000	     -4.42897278	      1.56145084	     -4.87051302	      0.40430502	      0.99631881	     -0.06404924	      3.56886592	     -4.31036367	     12.87274839	      5.99694979	      0.10466652	      6.11733160	    -17.04111920	     -7.49999987	      5.32359448	     -1.03070028	      9.29176277	      8.08659302	      0.14113767	      2.64311307	    -20.89071105	     -7.49999987	     -6.57480318	     -1.59715034	     -0.10278924	      5.40188143	     -4.59576239	     20.32255537	     28.80183534	     90.40034537	      8.49324445	     -5.17246599	      6.21538788	     25.65331859	     95.17765382
      4.37916670	     -4.46376906	      1.55992855	     -4.84746248	      0.40448319	      0.99721933	     -0.06337871	      3.60996115	     -4.31493518	     12.81072488	      6.00381829	      0.10478640	      6.27890502	    -16.83398664	     -7.49999987	      5.34603753	     -1.04093069	      9.25954611	      8.04905371	      0.14048249	      2.67771361	    -20.83783669	     -7.49999987	     -6.55025917	     -1.62401296	     -0.10932009	      5.37679257	     -4.53800895	     19.98847702	     28.84573531	     93.43217241	      8.51258720	     -5.17807863	      6.01885082	     25.66500894	     98.63551956
      4.38333330	     -4.47820952	      1.53763750	     -4.85074868	      0.40378532	      0.99792242	     -0.06426121	      3.61772504	     -4.31837912	     12.81693853	      5.92804335	      0.10346387	      6.25972218	    -16.80596436	     -7.49999987	      5.34786901	     -1.08330088	      9.21278971	      7.96233489	      0.13896896	      2.60022775	    -20.94235413	     -7.49999987	     -6.57145614	     -1.57580719	     -0.15340358	      5.43196400	     -4.57831851	     20.32006053	     28.86218125	     92.28491353	      8.51754645	     -5.17520307	      6.31057581	     25.68839216	     97.22274256
      4.38750000	     -4.44035920	      1.50407636	     -4.85326139	      0.40405453	      0.99827234	     -0.06339467	      3.56896828	     -4.29337458	     12.80501719	      5.87032179	      0.10245644	      6.21870724	    -16.78677335	     -7.49999987	      5.28978643	     -1.13808617	      9.19205689	      7.90292439	      0.13793205	      2.56666550	    -20.95923126	     -7.49999987	     -6.65622513	     -1.55470238	     -0.15433806	      5.43357764	     -4.52130655	     19.97556374	     28.87033108	     93.66324840	      8.56411003	     -5.17573314	      6.15368225	     25.67757461	     98.89153587
      4.39166670	     -4.35509160	      1.48550637	     -4.87369906	      0.40414603	      0.99844952	     -0.06352493	      3.43328778	     -4.27632729	     12.86356766	      5.78760004	      0.10101268	      6.13152475	    -16.81206701	     -7.49999987	      5.15666446	     -1.15828039	      9.24325584	      7.81262605	      0.13635605	      2.43851621	    -21.05604486	     -7.49999987	     -6.78912682	     -1.54445243	     -0.19971414	      5.53357120	     -4.58515862	     20.95819561	     28.84167195	     90.41424535	      8.61712359	     -5.22526015	      6.91344230	     25.65005906	     95.50771765
      4.39583330	     -4.36597368	      1.44110212	     -4.88492598	      0.40290612	      0.99742928	     -0.06285970	      3.47732841	     -4.20508053	     12.84309845	      5.78957133	      0.10104708	      6.18976348	    -16.68597668	     -7.49999987	      5.21689473	     -1.21390783	      9.13862165	      7.86950023	      0.13734869	      2.60439157	    -20.86703456	     -7.49999987	     -6.81636733	     -1.52201339	     -0.15927676	      5.53541597	     -4.49419913	     20.25263242	     28.77286741	     93.63475923	      8.66437485	     -5.20118596	      6.39102219	     25.61996201	     98.86773675
      4.40000000	     -4.34191157	      1.43107156	     -4.90569682	      0.40210335	      0.99595093	     -0.06322989	      3.47083473	     -4.18366444	     12.92260611	      5.77237405	      0.10074693	      6.09225147	    -16.84255430	     -7.49999987	      5.18376094	     -1.24045288	      9.14285420	      7.81058490	      0.13632042	      2.62208692	    -20.79762128	     -7.49999987	     -6.88319719	     -1.52870279	     -0.26777924	      5.62803765	     -4.49894034	     20.90711212	     28.78605480	     91.09421656	      8.69537111	     -5.27827511	      6.95263523	     25.64471219	     96.02702758
      4.40416670	     -4.37233419	      1.40582914	     -4.94725130	      0.40186798	      0.99635219	     -0.06347663	      3.53450361	     -4.14080981	     12.98178432	      5.75814383	      0.10049857	      6.04440072	    -16.94975106	     -7.49999987	      5.20668159	     -1.28307432	      9.12722434	      7.71065146	      0.13457626	      2.55413042	    -20.85527013	     -7.49999987	     -6.87101993	     -1.50390450	     -0.21943679	      5.68091985	     -4.54270115	     21.35403011	     28.79347980	     90.01769258	      8.74540336	     -5.28010308	      7.46374099	     25.65705853	     94.81401395
      4.40833330	     -4.43115381	      1.41102555	     -4.97741030	      0.40301243	      0.99875055	     -0.06533731	      3.61977042	     -4.18896085	     12.94722422	      5.74638406	      0.10029332	      6.02361290	    -16.97327836	     -7.49999987	      5.22176181	     -1.28265303	      9.19253665	      7.58548272	      0.13239165	      2.47822219	    -20.87303919	     -7.49999987	     -6.76862236	     -1.49623591	     -0.19229534	      5.66200988	     -4.52079484	     21.16315532	     28.67677744	     90.32287109	      8.77993255	     -5.19807270	      7.39766989	     25.53288273	     95.46134686
